# xmcd
# Track frame offsets:
# 150
# 10570
# 22939
# 32009
# 43704
# 52474
# 63044
# 74139
# 84033
# 96553
# 106148
# 116493
# 128787
# 139581
# 152026
#
# Disc length: 2191 seconds
# Revision: 0
# Processed by: cddbd v1.5.2PL0 Copyright (c) Steve Scherf et al.
# Submitted via: VisiTrax 2.11.2.271 - For more info visit www.synapsa.com
#
DISCID=c1088d0f
DTITLE=Various Artist - Classic Country 1950-1956 Disc 2
DYEAR=2001
DGENRE=Country
TTITLE0=Johnny Cash - There You Go
TTITLE1=Sanford Clark - The Fool
TTITLE2=Johnny Horton - I'm A One Woman Man
TTITLE3=Rusty Draper - Gambler's Guitar
TTITLE4=Johnnie and Jack - Oh, Baby Mine (I Get So Lonely)
TTITLE5=Faron Young - Live Fast, Love Hard, Die Young
TTITLE6=Ray Price - I'll Be There
TTITLE7=Hank Thompson - New Green Light
TTITLE8=Hank Snow - Yellow Roses
TTITLE9=The Louvin Brothers - I Don't Believe You've Met My Baby
TTITLE10=Lefty Frizzell - Give Me More, More, More
TTITLE11=The Browns - I Take The Chance
TTITLE12=Carl Smith - Don't Just Stand There
TTITLE13=Eddy Arnold - Cattle Call
TTITLE14=Faron Young - Sweet Dreams
EXTD=
EXTT0=
EXTT1=
EXTT2=
EXTT3=
EXTT4=
EXTT5=
EXTT6=
EXTT7=
EXTT8=
EXTT9=
EXTT10=
EXTT11=
EXTT12=
EXTT13=
EXTT14=
PLAYORDER=
